<svg width="60" height="60" viewBox="0 0 60 60" fill="none" xmlns="http://www.w3.org/2000/svg">
<path fill-rule="evenodd" clip-rule="evenodd" d="M12.5 15C11.837 15 11.2011 15.2634 10.7322 15.7322C10.2634 16.2011 10 16.837 10 17.5V42.5C10 43.163 10.2634 43.7989 10.7322 44.2678C11.2011 44.7366 11.837 45 12.5 45H47.5C48.8807 45 50 46.1193 50 47.5C50 48.8807 48.8807 50 47.5 50H12.5C10.5109 50 8.60322 49.2098 7.1967 47.8033C5.79018 46.3968 5 44.4891 5 42.5V17.5C5 15.5109 5.79018 13.6032 7.1967 12.1967C8.60322 10.7902 10.5109 10 12.5 10C13.8807 10 15 11.1193 15 12.5C15 13.8807 13.8807 15 12.5 15ZM20 12.5C20 11.1193 21.1193 10 22.5 10H47.5C49.4891 10 51.3968 10.7902 52.8033 12.1967C54.2098 13.6032 55 15.5109 55 17.5V42.5C55 43.8807 53.8807 45 52.5 45C51.1193 45 50 43.8807 50 42.5V17.5C50 16.837 49.7366 16.2011 49.2678 15.7322C48.7989 15.2634 48.163 15 47.5 15H22.5C21.1193 15 20 13.8807 20 12.5Z" fill="white"/>
<path fill-rule="evenodd" clip-rule="evenodd" d="M22.5 25C21.837 25 21.2011 25.2634 20.7322 25.7322C20.2634 26.2011 20 26.837 20 27.5V37.5C20 38.8807 18.8807 40 17.5 40C16.1193 40 15 38.8807 15 37.5V27.5C15 25.5109 15.7902 23.6032 17.1967 22.1967C18.6032 20.7902 20.5109 20 22.5 20C23.8807 20 25 21.1193 25 22.5C25 23.8807 23.8807 25 22.5 25ZM27.5 25C28.8807 25 30 26.1193 30 27.5V37.5C30 38.8807 28.8807 40 27.5 40C26.1193 40 25 38.8807 25 37.5V27.5C25 26.1193 26.1193 25 27.5 25Z" fill="white"/>
<path fill-rule="evenodd" clip-rule="evenodd" d="M15 32.5C15 31.1193 16.1193 30 17.5 30H27.5C28.8807 30 30 31.1193 30 32.5C30 33.8807 28.8807 35 27.5 35H17.5C16.1193 35 15 33.8807 15 32.5Z" fill="white"/>
<path fill-rule="evenodd" clip-rule="evenodd" d="M42.5 20C43.8807 20 45 21.1193 45 22.5V32.5C45 33.8807 43.8807 35 42.5 35C41.1193 35 40 33.8807 40 32.5V22.5C40 21.1193 41.1193 20 42.5 20Z" fill="white"/>
<path fill-rule="evenodd" clip-rule="evenodd" d="M38.009 29.2985C38.5772 28.0401 40.0579 27.4806 41.3163 28.0488C42.6899 28.669 43.7915 29.7629 44.4233 31.1261C45.0038 32.3789 44.4589 33.865 43.2061 34.4456C41.9534 35.0261 40.4672 34.4812 39.8867 33.2284C39.7584 32.9516 39.5351 32.7306 39.2587 32.6058C38.0003 32.0376 37.4408 30.5569 38.009 29.2985Z" fill="white"/>
<path fill-rule="evenodd" clip-rule="evenodd" d="M5.73223 5.73223C6.70854 4.75592 8.29146 4.75592 9.26777 5.73223L54.2678 50.7322C55.2441 51.7085 55.2441 53.2915 54.2678 54.2678C53.2915 55.2441 51.7085 55.2441 50.7322 54.2678L5.73223 9.26777C4.75592 8.29146 4.75592 6.70854 5.73223 5.73223Z" fill="white"/>
</svg>
