<svg width="60" height="60" viewBox="0 0 60 60" fill="none" xmlns="http://www.w3.org/2000/svg">
<path fill-rule="evenodd" clip-rule="evenodd" d="M15 12.5C13.6193 12.5 12.5 13.6193 12.5 15V45C12.5 46.3807 13.6193 47.5 15 47.5H45C46.3807 47.5 47.5 46.3807 47.5 45V15C47.5 13.6193 46.3807 12.5 45 12.5H15ZM7.5 15C7.5 10.8579 10.8579 7.5 15 7.5H45C49.1421 7.5 52.5 10.8579 52.5 15V45C52.5 49.1421 49.1421 52.5 45 52.5H15C10.8579 52.5 7.5 49.1421 7.5 45V15Z" fill="white"/>
<path fill-rule="evenodd" clip-rule="evenodd" d="M20 7.5C21.3807 7.5 22.5 8.61929 22.5 10V50C22.5 51.3807 21.3807 52.5 20 52.5C18.6193 52.5 17.5 51.3807 17.5 50V10C17.5 8.61929 18.6193 7.5 20 7.5Z" fill="white"/>
<path fill-rule="evenodd" clip-rule="evenodd" d="M40 7.5C41.3807 7.5 42.5 8.61929 42.5 10V50C42.5 51.3807 41.3807 52.5 40 52.5C38.6193 52.5 37.5 51.3807 37.5 50V10C37.5 8.61929 38.6193 7.5 40 7.5Z" fill="white"/>
<path fill-rule="evenodd" clip-rule="evenodd" d="M7.5 20C7.5 18.6193 8.61929 17.5 10 17.5H20C21.3807 17.5 22.5 18.6193 22.5 20C22.5 21.3807 21.3807 22.5 20 22.5H10C8.61929 22.5 7.5 21.3807 7.5 20Z" fill="white"/>
<path fill-rule="evenodd" clip-rule="evenodd" d="M7.5 40C7.5 38.6193 8.61929 37.5 10 37.5H20C21.3807 37.5 22.5 38.6193 22.5 40C22.5 41.3807 21.3807 42.5 20 42.5H10C8.61929 42.5 7.5 41.3807 7.5 40Z" fill="white"/>
<path fill-rule="evenodd" clip-rule="evenodd" d="M7.5 30C7.5 28.6193 8.61929 27.5 10 27.5H50C51.3807 27.5 52.5 28.6193 52.5 30C52.5 31.3807 51.3807 32.5 50 32.5H10C8.61929 32.5 7.5 31.3807 7.5 30Z" fill="white"/>
<path fill-rule="evenodd" clip-rule="evenodd" d="M37.5 20C37.5 18.6193 38.6193 17.5 40 17.5H50C51.3807 17.5 52.5 18.6193 52.5 20C52.5 21.3807 51.3807 22.5 50 22.5H40C38.6193 22.5 37.5 21.3807 37.5 20Z" fill="white"/>
<path fill-rule="evenodd" clip-rule="evenodd" d="M37.5 40C37.5 38.6193 38.6193 37.5 40 37.5H50C51.3807 37.5 52.5 38.6193 52.5 40C52.5 41.3807 51.3807 42.5 50 42.5H40C38.6193 42.5 37.5 41.3807 37.5 40Z" fill="white"/>
</svg>
