<svg width="60" height="60" viewBox="0 0 60 60" fill="none" xmlns="http://www.w3.org/2000/svg">
<path fill-rule="evenodd" clip-rule="evenodd" d="M12.5 20C11.1193 20 10 21.1193 10 22.5V45C10 46.3807 11.1193 47.5 12.5 47.5H47.5C48.8807 47.5 50 46.3807 50 45V22.5C50 21.1193 48.8807 20 47.5 20H12.5ZM5 22.5C5 18.3579 8.35786 15 12.5 15H47.5C51.6421 15 55 18.3579 55 22.5V45C55 49.1421 51.6421 52.5 47.5 52.5H12.5C8.35786 52.5 5 49.1421 5 45V22.5Z" fill="white"/>
<path fill-rule="evenodd" clip-rule="evenodd" d="M18.2322 5.73223C19.2085 4.75592 20.7915 4.75592 21.7678 5.73223L30 13.9645L38.2322 5.73223C39.2085 4.75592 40.7915 4.75592 41.7678 5.73223C42.7441 6.70854 42.7441 8.29146 41.7678 9.26777L31.7678 19.2678C30.7915 20.2441 29.2085 20.2441 28.2322 19.2678L18.2322 9.26777C17.2559 8.29146 17.2559 6.70854 18.2322 5.73223Z" fill="white"/>
</svg>
