<?xml version="1.0" standalone="no"?>
<!DOCTYPE svg PUBLIC "-//W3C//DTD SVG 20010904//EN"
 "http://www.w3.org/TR/2001/REC-SVG-20010904/DTD/svg10.dtd">
<svg version="1.0" xmlns="http://www.w3.org/2000/svg"
 width="179.000000pt" height="179.000000pt" viewBox="0 0 179.000000 179.000000"
 preserveAspectRatio="xMidYMid meet">
<metadata>
Created by potrace 1.14, written by Peter Selinger 2001-2017
</metadata>
<g transform="translate(0.000000,179.000000) scale(0.100000,-0.100000)"
fill="#000000" stroke="none">
<path d="M1419 1456 c-162 -43 -263 -119 -321 -241 -28 -61 -61 -200 -50 -218
2 -5 15 7 28 26 59 88 190 144 309 134 132 -12 277 -76 352 -155 l35 -37 -6
67 c-6 69 -11 87 -45 161 -43 95 -33 158 38 239 l31 36 -32 5 c-87 13 -256 4
-339 -17z"/>
<path d="M605 1285 c-119 -29 -271 -113 -367 -203 -69 -64 -161 -189 -199
-270 -28 -57 -33 -79 -33 -147 -1 -69 2 -85 23 -114 110 -154 446 -51 687 212
53 57 141 194 148 229 2 7 6 24 10 38 30 112 1 206 -78 247 -38 20 -129 24
-191 8z m83 -102 c4 -29 -53 -93 -83 -93 -33 0 -38 13 -19 53 28 59 96 86 102
40z m-305 -96 c8 -22 -21 -72 -54 -91 -63 -37 -81 14 -25 70 35 35 70 44 79
21z m360 -142 c-4 -51 -87 -109 -108 -75 -10 16 23 74 53 93 38 24 57 18 55
-18z m-256 -31 c7 -19 -33 -61 -62 -66 -32 -5 -31 35 1 61 32 25 52 27 61 5z
m-253 -110 c-3 -50 -79 -113 -106 -86 -15 15 7 67 40 93 33 25 67 22 66 -7z
m234 -92 c6 -41 -61 -107 -95 -95 -32 11 -1 82 46 108 32 18 45 14 49 -13z"/>
<path d="M935 1084 c1 -56 -13 -112 -45 -175 -24 -46 -87 -146 -105 -165 -5
-6 -24 -26 -40 -45 -153 -175 -445 -309 -584 -269 -30 8 -32 8 -20 -8 35 -45
89 -92 114 -98 80 -20 285 58 420 161 206 155 373 405 349 523 -3 16 -25 51
-48 77 l-41 48 0 -49z"/>
</g>
</svg>
